<?xml version="1.0" encoding="UTF-8"?>
<svg id="Ebene_1" data-name="Ebene 1" xmlns="http://www.w3.org/2000/svg" viewBox="0 0 297.3 295">
  <defs>
    <style>
      .cls-1 {
        fill: #52a19b;
        stroke-width: 0px;
      }
    </style>
  </defs>
  <path class="cls-1" d="M225.05,277.17c62.17,8.28,82.68-92.31,24-110.86-5.4-1.92-27.17-6.08-31.3-2.37-3.81,8.19-6.81,16.74-7.35,25.78-.18,7.98.07,16.02-2.32,23.7-5.86,17.4-14.06,35.55-29.4,46.5-9.16,5.83-18.11,2.86-21.09-7.87-5.76-18.25-2.2-37.56-3.77-56.32-.07-.69-.41-3.99-1.22-1.89-4.38,19.29,4.4,40.14-2.64,59.04-10.79,25.21-36.31-5.64-41.85-19.68-3.32-7.47-7.2-14.8-9.48-22.68-2.57-10.52-1.03-21.77-4.2-32.2-1.47-3.28-4.84-14.87-7.84-15.61-31.75-1.28-66.85-15.5-79.53-46.51C-9.36,78.64,3.16,31.04,41.54,12.3c14.34-8.03,30.75-8.94,46.89-8.43,43.15,0,86.29,0,129.44,0,1.66.13,3.19-.28,4.4-1.44,5.83-5.09,15.6-1.75,17.16,5.75,2.57,9.41-9.5,17.32-17.11,10.72-3.08-2.6-7.52-1.09-11.21-1.47-48.06.55-96.27-1.09-144.26.68-26.03,3.7-48.59,25.02-52.28,51.46-5.38,30.37,9.3,62.76,39.56,72.92,8.33,3.19,17.03,5.17,25.92,6.08,2.02-.02.22-2.48-.03-3.52-1.54-3.89-2.96-7.93-4.11-11.99-8.2-22.64,1.96-50.82,24.97-59.75,18.02-4.53,33.62,12.34,51.36,11.65,14.97-1.98,27.49-14.24,42.61-14.92,13.91.89,25.26,11.44,31.95,22.75,11.07,16.92,7.46,37.74-1.33,54.75-.42.77-.11,1.45.79,1.51,10.68.54,21.57,2.02,31.48,6.01,48.12,18.12,51.19,88.6,15.46,120.4-9.02,8.21-19.78,13.01-31.89,14.73-63.63,2.44-127.5.2-191.22.91-1.67-.1-3.34.25-4.6,1.41-5.65,5.1-15.58,1.92-17.2-5.45-1.72-6.06,2.68-12.51,8.87-13.23,5.32-1.39,7.93,3.83,12.68,3.75,53.49-.37,107.28.82,160.65-.36.59-.45.65-1.36.66-2.1-.02-9.46-.03-18.88,0-28.32-.33-2.53,1.24-4.57,3.88-4.55,3.58.09,10.19-1.41,9.62,4.2.29,10.18-.51,20.59.29,30.62l.11.1ZM171.2,249.36c8.66-7.18,14.5-17.15,19.27-27.29,4.35-8.9,6.5-18.33,6.34-28.25,0-4.08.34-8.16.95-12.2,2.21-14.37,9.67-27.1,15.48-40.2,5.5-10.99,9.48-24.11,4.76-36.18-3.94-9.7-11.7-19.6-22.48-21.84-3.93-.47-7.38,2.03-10.91,3.33-13.34,5.09-27.15,14.87-42,10.84-10.23-2.99-20.02-7.21-30.15-10.73-3.87-1.62-8.09-1.64-11.54,1.18-25.64,20.21-10.89,46.54-.2,70.45,4.32,9.5,8.67,19.19,9.17,29.76.78,8.66.24,17.77,4.31,25.74,5.2,11.75,9.85,24.48,20.46,32.56,2.53,2.05,2.98,2.09,3.63-1.35,2.37-13.62-.38-27.57-.33-41.32-.63-11.14,5.3-35.93,20.86-27.46,5.98,4.65,8.09,12.61,8.66,19.82.3,8.77.34,17.57.2,26.36-.19,8.07.26,16.08,2.27,23.88.34.95.46,2.29,1.15,2.9h.1Z"/>
  <path class="cls-1" d="M102.91,128.32c.26-1.32.9-2.81,1.68-4.01,8.58-13.96,25.89-18.83,41.01-14.44,5.82,1.79,6,10.38.29,12.39-3.51,1.19-7.21-.31-10.8-.28-8.33-.34-14.86,3.01-19.44,10.13-.95,1.48-2.17,2.85-3.92,3.29-4.32,1.19-8.73-2.4-8.86-6.88l.02-.2Z"/>
</svg>